<svg xmlns="http://www.w3.org/2000/svg" viewBox="0 0 100 100">
  <path d="M50,10 C70,10 90,30 90,50 C90,70 70,90 50,90 C30,90 10,70 10,50 C10,30 30,10 50,10 Z" fill="none" stroke="#014105" stroke-width="1" opacity="0.7"/>
  <path d="M50,15 C80,20 80,80 50,85 C20,80 20,20 50,15 Z" fill="#014105" opacity="0.3"/>
  <path d="M50,20 C65,35 65,65 50,80 C35,65 35,35 50,20 Z" fill="#015807" opacity="0.5"/>
  <path d="M30,50 C50,30 70,50 50,70 C30,50 30,50 30,50 Z" fill="#022904" opacity="0.6"/>
  <path d="M50,30 C60,40 60,60 50,70 C40,60 40,40 50,30 Z" fill="none" stroke="#013305" stroke-width="0.5" opacity="0.8"/>
</svg>