<?xml version="1.0" encoding="UTF-8"?>
<svg version="1.1" xmlns="http://www.w3.org/2000/svg" width="596" height="842">
<path d="M0 0 C1.01724152 0.00182281 2.03448303 0.00364563 3.08255005 0.00552368 C17.71838283 0.04971026 31.97881294 0.46605186 46.375 3.3125 C47.26912598 3.47347168 48.16325195 3.63444336 49.08447266 3.80029297 C72.49938713 8.03572754 95.05336982 15.7948761 116.375 26.3125 C117.46748047 26.84544678 117.46748047 26.84544678 118.58203125 27.38916016 C135.01447086 35.48324697 150.18289235 45.75720144 164.375 57.3125 C164.91511719 57.74965332 165.45523437 58.18680664 166.01171875 58.63720703 C180.08649098 70.1160204 193.31676869 82.88129466 204.375 97.3125 C205.53128906 98.74335938 205.53128906 98.74335938 206.7109375 100.203125 C239.21946353 141.01824601 260.31659604 195.09218208 260.578125 247.54296875 C260.58513931 248.48799255 260.59215363 249.43301636 260.59938049 250.40667725 C260.61678359 253.43783387 260.62323225 256.46879526 260.625 259.5 C260.62601212 261.05208664 260.62601212 261.05208664 260.62704468 262.63552856 C260.61168068 277.43766438 260.2540145 291.7516054 257.375 306.3125 C257.21402832 307.20662598 257.05305664 308.10075195 256.88720703 309.02197266 C252.65177246 332.43688713 244.8926239 354.99086982 234.375 376.3125 C233.84205322 377.40498047 233.84205322 377.40498047 233.29833984 378.51953125 C225.20425303 394.95197086 214.93029856 410.12039235 203.375 424.3125 C202.93784668 424.85261719 202.50069336 425.39273437 202.05029297 425.94921875 C190.5714796 440.02399098 177.80620534 453.25426869 163.375 464.3125 C161.94414063 465.46878906 161.94414063 465.46878906 160.484375 466.6484375 C119.66925399 499.15696353 65.59531792 520.25409604 13.14453125 520.515625 C12.19950745 520.52263931 11.25448364 520.52965363 10.28082275 520.53688049 C7.24966613 520.55428359 4.21870474 520.56073225 1.1875 520.5625 C-0.36458664 520.56351212 -0.36458664 520.56351212 -1.94802856 520.56454468 C-16.75016438 520.54918068 -31.0641054 520.1915145 -45.625 517.3125 C-46.51912598 517.15152832 -47.41325195 516.99055664 -48.33447266 516.82470703 C-71.74938713 512.58927246 -94.30336982 504.8301239 -115.625 494.3125 C-116.35332031 493.95720215 -117.08164063 493.6019043 -117.83203125 493.23583984 C-134.26447086 485.14175303 -149.43289235 474.86779856 -163.625 463.3125 C-164.16511719 462.87534668 -164.70523438 462.43819336 -165.26171875 461.98779297 C-179.33649098 450.5089796 -192.56676869 437.74370534 -203.625 423.3125 C-204.39585937 422.35859375 -205.16671875 421.4046875 -205.9609375 420.421875 C-233.47091004 385.8825404 -250.83212644 343.8030216 -257.625 300.3125 C-257.73682617 299.6014209 -257.84865234 298.8903418 -257.96386719 298.15771484 C-268.16207283 230.55036733 -250.3722795 160.73011124 -210.05859375 105.78125 C-207.65336961 102.56660312 -205.15976919 99.42567938 -202.625 96.3125 C-202.18784668 95.77238281 -201.75069336 95.23226562 -201.30029297 94.67578125 C-189.8214796 80.60100902 -177.05620534 67.37073131 -162.625 56.3125 C-161.19414062 55.15621094 -161.19414062 55.15621094 -159.734375 53.9765625 C-125.38545007 26.61824792 -83.01743842 8.69481668 -39.625 2.3125 C-37.83545898 2.04651001 -37.83545898 2.04651001 -36.00976562 1.77514648 C-24.01482149 0.11679258 -12.09375162 -0.04495086 0 0 Z " fill="#A4CF96" transform="translate(275.625,153.6875)"/>
<path d="M0 0 C1 1 1 1 1.1875 4.9609375 C0.94799598 23.90420884 -7.54051554 41.84759042 -20.796875 55.05859375 C-36.0675071 69.48345338 -55.52075807 77.1664691 -76.375 77.1875 C-77.53467285 77.1887085 -77.53467285 77.1887085 -78.71777344 77.18994141 C-82.60362476 77.151878 -86.20592229 76.94474046 -90 76 C-85.60773732 94.40333527 -78.74066186 108.3607439 -62.33984375 119.05859375 C-51.35848201 125.44191163 -40.63114961 128.36659523 -28 128.25 C-27.16210938 128.25773438 -26.32421875 128.26546875 -25.4609375 128.2734375 C-7.2811867 128.21715344 8.61386425 119.89878733 22 108 C20.91456058 105.22377994 19.77338009 102.49010521 18.5625 99.765625 C13.975359 89.44455775 11.67672629 80.28401747 11 69 C10.93425781 68.14792969 10.86851562 67.29585938 10.80078125 66.41796875 C10.01377355 48.31679161 18.23161768 32.25371213 30 19 C30.88751953 17.97132813 30.88751953 17.97132813 31.79296875 16.921875 C40.74043911 7.23037193 52.52944132 0.90183124 65 -3 C66.46759766 -3.47759766 66.46759766 -3.47759766 67.96484375 -3.96484375 C89.06156094 -9.85671972 109.55174221 -5.43140645 128.296875 4.99951172 C132.15312304 7.26483633 135.82743513 9.82743513 139 13 C139.28792759 15.73531209 139.34443368 17.41243666 137.9375 19.8125 C134.90426414 21.67158004 132.50008643 21.28653557 129 21 C125.859375 19.390625 125.859375 19.390625 122.75 17.25 C107.91105032 7.4728144 91.09129489 6.30836796 73.74609375 8.390625 C57.26332725 12.31629152 42.06827307 22.40487436 32.98046875 36.60546875 C24.31586891 51.45662705 22.4877298 67.37608243 26.625 84.0625 C31.7147656 100.50635808 41.6149364 113.18644066 56.7265625 121.5 C66.89721545 126.42412016 76.45694436 128.25268999 87.6875 128.3125 C89.00596924 128.32083862 89.00596924 128.32083862 90.35107422 128.3293457 C106.96885463 128.14664693 122.51021705 121.17646492 134.6875 109.9375 C146.94919775 97.0177505 152.65598638 79.52242271 154.3828125 62.1484375 C156.50326927 41.38646515 165.93817037 24.37078919 181.625 10.71484375 C199.64954133 -3.20589576 221.29899094 -8.22111666 243.68359375 -5.5625 C256.88585676 -3.16481319 269.58085783 2.55108744 280 11 C281.24330078 11.98226563 281.24330078 11.98226563 282.51171875 12.984375 C297.13959985 25.26014658 306.06226866 43.10706212 308.23193359 62.02197266 C309.74549692 81.55505652 302.7976637 100.559527 290.25 115.4375 C276.1764878 131.31809103 256.94385134 140.81265343 235.77734375 142.37890625 C213.18962886 143.36598965 192.98587477 134.91681908 176.01953125 120.29296875 C169.03863651 113.71274346 164.00659242 105.65423964 160 97 C157.74125998 99.90602074 155.82864939 102.90748665 153.9375 106.0625 C142.28242572 124.38808849 124.74039071 136.15917368 103.69116211 140.91699219 C81.26246997 145.29209015 60.52569156 140.16589011 41.51171875 127.8515625 C38.45687925 125.59962794 35.97597729 123.0840242 33.53515625 120.1875 C32.06129925 118.77792348 32.06129925 118.77792348 30.01953125 119.12109375 C27.70403235 120.12880604 26.41484943 121.28479887 24.625 123.0625 C7.82706697 138.21174701 -14.43596922 143.14408829 -36.45996094 142.18652344 C-51.70459405 141.0670598 -67.76082049 133.2769911 -79 123 C-79.90363281 122.18789063 -80.80726562 121.37578125 -81.73828125 120.5390625 C-92.20419543 110.6538012 -97.7561222 99.69313697 -102 86 C-102.2475 85.24460937 -102.495 84.48921875 -102.75 83.7109375 C-107.37876177 67.06025281 -103.46524766 47.97540949 -95.20068359 33.18457031 C-82.64225616 11.85763868 -63.90912366 0.52885482 -40.5625 -5.64453125 C-27.43527673 -7.46553326 -11.36550662 -7.47677949 0 0 Z " fill="#1A2F1B" transform="translate(174,290)"/>
<path d="M0 0 C13.24217181 8.39035679 22.82615045 21.99627152 27.625 36.859375 C30.96538168 52.59771177 28.38469841 69.25276567 20.19921875 83.12890625 C17.03170635 87.7291737 13.37737591 91.74086615 9.4375 95.6875 C8.79941406 96.3371875 8.16132813 96.986875 7.50390625 97.65625 C-5.35690994 109.8486246 -22.83803239 113.34366084 -39.97631836 113.15795898 C-58.27880421 112.52811295 -73.14519531 103.60896594 -85.5625 90.6875 C-97.16584815 77.51991779 -100.30043515 61.91404112 -99.69433594 44.77490234 C-98.72714751 29.4610855 -90.54983888 16.84049826 -79.5625 6.6875 C-56.16266716 -13.42755167 -26.43615655 -14.2322956 0 0 Z " fill="#6EAC5F" transform="translate(440.5625,306.3125)"/>
<path d="M0 0 C1.7890625 1.76171875 1.7890625 1.76171875 2.35546875 4.22265625 C2.33720104 17.85036661 -3.27602836 29.55280257 -12.4609375 39.44921875 C-23.7274138 50.19225257 -37.52621538 54.0751049 -52.68359375 53.83203125 C-53.51761719 53.80882812 -54.35164063 53.785625 -55.2109375 53.76171875 C-54.16106169 55.99762141 -53.09683763 58.22463588 -52.0234375 60.44921875 C-51.58547852 61.38797852 -51.58547852 61.38797852 -51.13867188 62.34570312 C-47.17120422 70.49394315 -40.31190257 76.52272033 -31.7734375 79.57421875 C-19.74286973 82.76525349 -7.57522926 81.55670726 3.21484375 75.37109375 C6.97145179 72.97191551 10.27648341 70.35476096 13.5390625 67.32421875 C16.42767999 64.76993199 16.42767999 64.76993199 19.5390625 64.69921875 C23.4634811 66.55241642 23.4634811 66.55241642 24.7890625 68.76171875 C25.00380703 72.41237573 24.5135244 74.75967769 22.3515625 77.75 C12.80249597 87.99535263 -0.4713897 94.34210272 -14.41015625 94.88671875 C-30.77055003 95.16970935 -43.20945056 91.29255915 -55.2109375 79.76171875 C-66.43672167 66.83271215 -69.21620197 53.73419149 -68.43310547 37.07470703 C-67.54960507 27.87659413 -62.18601133 20.46484779 -56.2109375 13.76171875 C-55.63859375 13.07335937 -55.06625 12.385 -54.4765625 11.67578125 C-42.27802375 -1.9302812 -16.7374507 -9.37415525 0 0 Z " fill="#192F1B" transform="translate(420.2109375,447.23828125)"/>
<path d="M0 0 C5.75348421 5.14881867 7.52563787 12.16815025 9.9375 19.3125 C10.37238948 20.57339378 10.80843201 21.83389043 11.24560547 23.09399414 C12.10654449 25.58292279 12.96308951 28.07337629 13.81494141 30.56542969 C14.84043344 33.5375397 15.89597197 36.49435451 16.98046875 39.4453125 C17.26349854 40.21963623 17.54652832 40.99395996 17.83813477 41.79174805 C18.34546526 43.17521925 18.85733621 44.557038 19.37475586 45.93676758 C20.62874148 49.41115111 21.26659827 52.30270287 21 56 C21.66 56 22.32 56 23 56 C23.26643311 54.70852051 23.53286621 53.41704102 23.80737305 52.08642578 C24.90988909 47.13714979 26.41921772 42.40307623 28.08203125 37.6171875 C28.5261158 36.32942917 28.5261158 36.32942917 28.97917175 35.01565552 C29.60262354 33.21473642 30.22882512 31.41476709 30.85766602 29.61572266 C31.81099829 26.87931045 32.74655388 24.13722336 33.68164062 21.39453125 C34.29319028 19.63504073 34.90578547 17.87591318 35.51953125 16.1171875 C35.93075981 14.90130447 35.93075981 14.90130447 36.35029602 13.66085815 C38.21331809 8.40644088 40.47010322 4.33621298 44 0 C47.11468874 -1.10826193 49.80013719 -0.73429688 53 0 C55.5625 1.5 55.5625 1.5 57 4 C59.21069542 17.01853969 49.44563369 33.89473705 44.79907227 45.83178711 C43.69645997 48.66448117 42.59874395 51.49903188 41.50195312 54.33398438 C37.92041397 63.57854976 34.30399463 72.80943244 30.64453125 82.0234375 C30.32167648 82.84144333 29.99882172 83.65944916 29.66618347 84.50224304 C25.97128151 93.7624169 22.61237179 101.81647786 13 106 C8.68272915 107.25219544 4.52798812 107.2213061 0.0625 107.25 C-0.73607422 107.270625 -1.53464844 107.29125 -2.35742188 107.3125 C-7.09843275 107.34392344 -10.12564189 107.02890995 -14 104 C-16 102 -16 102 -16.4375 98.625 C-16 95 -16 95 -13.9140625 92.7734375 C-10.25918189 90.54915359 -8.16725696 90.71047653 -3.9375 91 C1.08547609 91.48085361 1.08547609 91.48085361 5.32421875 89.203125 C8.74657482 84.70380373 10.47322583 80.17936652 10.36621094 74.49468994 C9.62973948 69.47772363 7.50531296 64.8773564 5.55529785 60.22579575 C4.73590635 58.27106587 3.93391427 56.30994794 3.13574219 54.34646606 C1.72682373 50.88840405 0.30322575 47.43661851 -1.12548828 43.98669434 C-3.41424947 38.45999419 -5.69128466 32.92869116 -7.94763184 27.38867569 C-8.73643815 25.46279886 -9.53814082 23.54265577 -10.34082031 21.62252808 C-10.82131836 20.44755768 -11.30181641 19.27258728 -11.796875 18.06201172 C-12.22323242 17.03357147 -12.64958984 16.00513123 -13.08886719 14.94552612 C-14.07577447 11.75503495 -14.30253947 9.31985629 -14 6 C-10.5154237 0.77313555 -6.42123805 -1.83959793 0 0 Z " fill="#192E1A" transform="translate(251,463)"/>
<path d="M0 0 C4.15076344 2.58325458 7.34743139 5.20305245 9.5859375 9.609375 C10.262605 12.74850168 10.4329689 15.49745529 9.5859375 18.609375 C7.51449895 21.27178278 6.61235546 21.6025259 3.2109375 22.484375 C-0.9589875 22.62816552 -2.21920274 22.21570796 -5.4140625 19.609375 C-6.2184375 18.619375 -7.0228125 17.629375 -7.8515625 16.609375 C-11.34193627 12.52308376 -13.91449099 10.85094433 -19.32421875 10.328125 C-25.273 10.00102088 -25.273 10.00102088 -30.7421875 11.94921875 C-32.68752094 13.57797626 -32.68752094 13.57797626 -33.0390625 16.546875 C-32.70789453 19.77929669 -32.70789453 19.77929669 -30.046875 21.6171875 C-24.85149903 24.85025904 -18.69725823 25.81565817 -12.8203125 27.23242188 C-3.71955 29.53903778 6.44771242 32.91299182 12.18359375 40.80859375 C14.83369658 46.1014175 14.2711144 51.84736356 13.5859375 57.609375 C11.48943775 63.52616319 6.82403413 68.26368454 1.5859375 71.609375 C-10.94636522 77.20844916 -25.59402878 77.20107762 -38.4140625 72.609375 C-44.51623445 69.75088249 -49.35494326 65.72761348 -52.4140625 59.609375 C-52.91520693 55.35375505 -53.11118268 51.80028865 -50.9140625 48.046875 C-47.39497203 46.02339798 -44.37454829 45.65395884 -40.4140625 46.609375 C-38.1015625 48.859375 -38.1015625 48.859375 -36.4140625 51.609375 C-35.8365625 52.33125 -35.2590625 53.053125 -34.6640625 53.796875 C-33.4140625 55.609375 -33.4140625 55.609375 -33.4140625 57.609375 C-32.6921875 57.898125 -31.9703125 58.186875 -31.2265625 58.484375 C-28.4140625 59.609375 -28.4140625 59.609375 -26.1640625 60.734375 C-20.90217766 62.40861109 -16.12116114 62.2611763 -10.9765625 60.296875 C-8.19584564 58.70435936 -8.19584564 58.70435936 -6.4140625 55.609375 C-6.01103348 52.09126093 -6.01103348 52.09126093 -7.4140625 48.609375 C-13.01865871 44.98625744 -19.98053006 43.47710457 -26.3515625 41.734375 C-35.57141226 39.08256575 -45.10070036 36.24358848 -50.4140625 27.609375 C-53.00319802 22.11670894 -52.80841437 17.45745077 -51.4140625 11.609375 C-48.10044047 5.01548954 -42.55306722 0.3976778 -35.85546875 -2.49609375 C-24.64308546 -5.41054979 -10.53853565 -4.92351534 0 0 Z " fill="#192F1B" transform="translate(162.4140625,466.390625)"/>
<path d="M0 0 C3.06387073 2.70915343 4.73803464 4.38476069 5.39892578 8.4597168 C5.49160217 11.28077602 5.4366733 14.05531101 5.3125 16.875 C5.28994141 17.84953125 5.26738281 18.8240625 5.24414062 19.828125 C5.18550753 22.22035515 5.10351153 24.6093615 5 27 C6.02951782 26.98151001 6.02951782 26.98151001 7.07983398 26.96264648 C7.98032471 26.95305908 8.88081543 26.94347168 9.80859375 26.93359375 C10.70118896 26.92126709 11.59378418 26.90894043 12.51342773 26.89624023 C15.87741382 27.03661275 17.60573225 27.60573225 20 30 C21.0625 33.4375 21.0625 33.4375 21 37 C18.82946501 39.94572605 17.47817177 40.84060941 14 42 C12.43881572 42.06740865 10.8749748 42.08514456 9.3125 42.0625 C8.10013672 42.04896484 8.10013672 42.04896484 6.86328125 42.03515625 C6.24839844 42.02355469 5.63351563 42.01195312 5 42 C5.09347175 48.06920432 5.19955179 54.13800674 5.31738281 60.20678711 C5.35569348 62.27182965 5.39054266 64.3369394 5.421875 66.40209961 C5.46748014 69.36857138 5.52548201 72.3345796 5.5859375 75.30078125 C5.59748871 76.2258699 5.60903992 77.15095856 5.62094116 78.1040802 C5.64081085 78.96474594 5.66068054 79.82541168 5.68115234 80.7121582 C5.69447601 81.46938675 5.70779968 82.2266153 5.7215271 83.00679016 C5.89708612 85.31605188 5.89708612 85.31605188 8 88 C11.18957321 88.14565967 14.23559332 88.01717116 17.4140625 87.79492188 C20.86850922 87.65551999 22.62460904 87.71965996 25.4375 89.8203125 C27 92 27 92 27.625 94.9375 C26.90869141 98.44741209 25.70937896 99.87733908 22.81640625 101.96484375 C16.02473168 105.83536797 7.57777705 105.8621423 0 105 C-4.62935565 103.6675884 -8.50713317 101.96931369 -11.46875 98.0625 C-14.12906266 93.04591041 -15.12947346 87.96307809 -15.11352539 82.30151367 C-15.11344986 81.40095749 -15.11337433 80.50040131 -15.11329651 79.57255554 C-15.10813522 78.6140419 -15.10297394 77.65552826 -15.09765625 76.66796875 C-15.0962413 75.67622147 -15.09482635 74.68447418 -15.09336853 73.66267395 C-15.08778418 70.50425157 -15.07523452 67.34590085 -15.0625 64.1875 C-15.05748298 62.04231873 -15.05292042 59.89713635 -15.04882812 57.75195312 C-15.03781988 52.50127776 -15.0210973 47.250644 -15 42 C-15.92941406 42.04253906 -16.85882813 42.08507812 -17.81640625 42.12890625 C-21 42 -21 42 -23.9375 39.9375 C-26 37 -26 37 -26.125 33.375 C-25 30 -25 30 -22.75 28.0625 C-19.90551438 26.96349419 -18.00775967 26.9142082 -15 27 C-15.03480469 25.78183594 -15.06960937 24.56367188 -15.10546875 23.30859375 C-15.13362512 21.68490972 -15.16092329 20.06121065 -15.1875 18.4375 C-15.21263672 17.63763672 -15.23777344 16.83777344 -15.26367188 16.01367188 C-15.33056659 10.55060309 -14.59442729 6.83422063 -12 2 C-8.04221093 -1.51803473 -4.98646531 -1.5137484 0 0 Z " fill="#1A2F1C" transform="translate(210,437)"/>
<path d="M0 0 C2.69105198 2.17574416 4.45532928 3.91065856 6 7 C6.11955134 9.92759731 6.17840389 12.83210891 6.19287109 15.76074219 C6.20104858 16.66823212 6.20922607 17.57572205 6.21765137 18.51071167 C6.24252332 21.52275936 6.25902654 24.53475984 6.2734375 27.546875 C6.27876118 28.57461281 6.28408485 29.60235062 6.28956985 30.66123199 C6.31631004 36.10162104 6.33568164 41.54198707 6.35009766 46.98242188 C6.36674206 52.60275137 6.41151594 58.22249409 6.4624691 63.84260178 C6.49612277 68.1629097 6.5076731 72.48307809 6.51332474 76.80350494 C6.52004304 78.87516002 6.53528007 80.94680574 6.55921555 83.01833344 C6.59082741 85.91993514 6.59090963 88.81995105 6.58349609 91.72167969 C6.59990143 92.57593536 6.61630676 93.43019104 6.63320923 94.31033325 C6.58927002 98.51642216 6.2795884 101.1845999 3.58853149 104.51739502 C0.82219897 107.17052515 -0.03371038 107.86823323 -3.75 108.375 C-8.30278706 107.84967842 -9.77905482 106.22094518 -13 103 C-14.30989874 99.07030377 -14.16403108 95.31494221 -14.17700195 91.2175293 C-14.18357315 90.31964691 -14.19014435 89.42176453 -14.19691467 88.49667358 C-14.21664056 85.52252113 -14.22830819 82.54841914 -14.23828125 79.57421875 C-14.24235678 78.55843058 -14.2464323 77.5426424 -14.25063133 76.49607277 C-14.27148819 71.12051217 -14.28579207 65.74497707 -14.29516602 60.36938477 C-14.30623474 54.81755408 -14.34064127 49.26612372 -14.38033772 43.71443462 C-14.40648131 39.44474034 -14.41485581 35.17514182 -14.41844749 30.90537453 C-14.42331861 28.85885728 -14.43494748 26.81234446 -14.45348549 24.76590538 C-14.47783055 21.90049862 -14.4769204 19.0361328 -14.4699707 16.1706543 C-14.48918579 14.90565346 -14.48918579 14.90565346 -14.50878906 13.61509705 C-14.46171089 8.28321273 -13.5566766 5.22487259 -10 1 C-6.78305636 -0.60847182 -3.47862778 -0.61309149 0 0 Z " fill="#192F1B" transform="translate(336,434)"/>
<path d="M0 0 C0.60041413 13.89782111 -6.89737562 26.45089945 -15.6875 36.6875 C-26.83637938 48.50297904 -42.73008722 55.76442941 -58.9375 56.625 C-59.96327148 56.68300781 -59.96327148 56.68300781 -61.00976562 56.7421875 C-62.67279513 56.83522412 -64.33635847 56.91863787 -66 57 C-66 56.34 -66 55.68 -66 55 C-64.83726563 54.48953125 -63.67453125 53.9790625 -62.4765625 53.453125 C-46.08342229 46.07940661 -31.7730279 36.55844463 -17.8203125 25.27734375 C-15 23 -15 23 -12.64453125 21.3828125 C-10.65601374 20.02268069 -10.65601374 20.02268069 -10.5625 16.9375 C-10.7790625 15.4834375 -10.7790625 15.4834375 -11 14 C-13.7871485 11.72878563 -13.7871485 11.72878563 -16.796875 12.05859375 C-20.7561789 13.22224282 -23.26635331 15.337486 -26.25 18.0625 C-31.77353342 23 -31.77353342 23 -34 23 C-34.05607422 22.06027344 -34.05607422 22.06027344 -34.11328125 21.1015625 C-34.17902344 20.28429687 -34.24476562 19.46703125 -34.3125 18.625 C-34.37050781 17.81289063 -34.42851563 17.00078125 -34.48828125 16.1640625 C-34.82990528 13.62078662 -34.82990528 13.62078662 -38 12 C-41.11304814 12.15760028 -41.11304814 12.15760028 -44 13 C-45.3756372 15.75127441 -45.22789395 18.18178811 -45.375 21.25 C-46.05513432 30.20017331 -46.05513432 30.20017331 -49 34 C-54.33004776 37.92285703 -60.27408981 40.67601105 -66.3125 43.3125 C-67.10978516 43.67150391 -67.90707031 44.03050781 -68.72851562 44.40039062 C-74.6160119 47 -74.6160119 47 -78 47 C-76.42328967 33.06879225 -67.00638356 20.64036551 -56.52734375 11.94921875 C-40.64439076 0.19432327 -19.40290433 -5.63926776 0 0 Z " fill="#6DAA5E" transform="translate(162,298)"/>
<path d="M0 0 C-1.92435478 9.62177391 -6.06134431 17.95563191 -14 24 C-21.98819735 28.83525474 -30.48930472 32.61359324 -40 32 C-38.38850612 28.77701224 -34.96179424 27.9663822 -31.8125 26.5 C-22.61061898 22.07216006 -12.9951518 16.58421722 -6 9 C-6.495 7.515 -6.495 7.515 -7 6 C-11.67105792 7.55701931 -15.08705685 10.08447373 -19 13 C-19.33 11.02 -19.66 9.04 -20 7 C-21.32 7 -22.64 7 -24 7 C-24.02578125 7.60328125 -24.0515625 8.2065625 -24.078125 8.828125 C-24.53550016 15.27295677 -24.53550016 15.27295677 -26.4375 18.25 C-32.09804748 22.11573975 -38.06046765 25.45214218 -45 26 C-42.40104582 16.64376496 -36.28371349 9.82503877 -28.1875 4.5625 C-19.9376527 0.03342364 -9.21420511 -3.0714017 0 0 Z " fill="#6BA75D" transform="translate(410,457)"/>
</svg>
